Coordinates
version=1
nRows=14
nColumns=24
inDegrees=yes

Units are S.I. units (second, meters, Newtons, ...)
Angles are in degrees.

endheader
time	pelvis_tilt	pelvis_list	pelvis_rotation	pelvis_tx	pelvis_ty	pelvis_tz	hip_flexion_r	hip_adduction_r	hip_rotation_r	knee_angle_r	ankle_angle_r	subtalar_angle_r	mtp_angle_r	hip_flexion_l	hip_adduction_l	hip_rotation_l	knee_angle_l	ankle_angle_l	subtalar_angle_l	mtp_angle_l	lumbar_extension	lumbar_bending	lumbar_rotation
      0.44200000	     -3.25604710	      4.25063320	     -3.32272838	     -0.79272517	      1.06371867	      0.30988389	     24.94785752	     -0.32261709	     -5.98429924	     -2.07772504	      0.67113188	     -1.36602832	     -0.02259082	     -6.53731932	      9.49484267	      0.72980519	     -9.40380542	      7.31512901	     -8.55070932	     -0.13321642	      3.18419464	     -0.96454154	      0.70593949
      0.44616667	     -3.25310433	      4.29122087	     -3.35824266	     -0.78696419	      1.06335768	      0.30999400	     24.94129567	     -0.32223229	     -5.97723209	     -2.39330932	      0.62198063	     -1.15201198	     -0.01274730	     -6.51543075	      9.50931233	      0.51881503	    -10.09199267	      7.08638960	     -8.26363997	     -0.17224494	      3.07902838	     -1.11361521	      0.70898620
      0.45033333	     -3.16795600	      4.28453246	     -3.53740426	     -0.78088584	      1.06310556	      0.31025433	     24.82792456	     -0.22740432	     -5.82380681	     -2.75183720	      0.74518367	     -0.85338489	      0.01516323	     -6.60284224	      9.49089480	      0.13031792	    -10.76083315	      7.11220614	     -7.66237419	     -0.22515817	      3.15163414	     -1.06263890	      0.69271076
      0.45450000	     -3.11341882	      4.27417774	     -3.52144126	     -0.77486238	      1.06291315	      0.31017334	     24.70973200	     -0.21942770	     -5.74049342	     -3.09594448	      0.72425794	     -0.82051841	      0.01921223	     -6.62415035	      9.44558062	      0.04800100	    -11.52311566	      7.07045622	     -7.62246606	     -0.22931901	      3.19580046	     -1.00821546	      0.69390441
      0.45866667	     -3.02381326	      4.26083550	     -3.72012360	     -0.76875094	      1.06268917	      0.31073588	     24.57450602	     -0.08669913	     -5.41215300	     -3.49888315	      0.76272960	     -0.68699279	      0.06474052	     -6.63420124	      9.37965030	     -0.62418856	    -12.34969488	      7.06188972	     -6.58140069	     -0.24019436	      3.08703930	     -1.05242345	      0.71860675
      0.46283333	     -2.94319762	      4.25559563	     -3.71040388	     -0.76269700	      1.06255483	      0.31060401	     24.43275906	     -0.09416262	     -5.32792062	     -3.91530659	      0.71991863	     -0.67962266	      0.07000234	     -6.62604044	      9.33355977	     -0.74531635	    -13.22024556	      7.00392936	     -6.52941443	     -0.23933948	      3.13205737	     -0.96169166	      0.71701625
      0.46700000	     -2.83556154	      4.21470262	     -3.89845247	     -0.75652159	      1.06241684	      0.31127733	     24.24277700	      0.06941215	     -4.87953841	     -4.30797942	      0.57444369	     -0.80479131	      0.12925940	     -6.59388748	      9.20500642	     -1.50325531	    -14.17096828	      6.90877534	     -5.33765207	     -0.18953292	      2.97730710	     -0.97724601	      0.76329427
      0.47116667	     -2.77757280	      4.20127707	     -3.92324664	     -0.75042132	      1.06226539	      0.31132641	     24.12941675	      0.09804061	     -4.80037374	     -4.78489238	      0.47611702	     -0.86148716	      0.14646103	     -6.48098556	      9.12206969	     -1.85136929	    -15.18795186	      6.78606404	     -5.11094420	     -0.16982422	      2.88507035	     -0.86888825	      0.75771412
      0.47533333	     -2.62606315	      4.16948425	     -4.07453196	     -0.74428689	      1.06223818	      0.31190127	     23.86818059	      0.21854660	     -4.25300446	     -5.15931401	      0.20245205	     -1.11122104	      0.21457961	     -6.43896739	      8.98721927	     -2.46259764	    -16.24553841	      6.57744032	     -3.98033650	     -0.05918787	      2.88296958	     -0.90761336	      0.82441346
      0.47950000	     -2.53412653	      4.13510835	     -4.15100836	     -0.73815769	      1.06216322	      0.31227644	     23.68095421	      0.30625759	     -3.93870184	     -5.57878659	     -0.06502131	     -1.40783184	      0.28503006	     -6.29148178	      8.83896215	     -3.00006032	    -17.39375780	      6.36580847	     -3.22980920	      0.07612933	      2.80549514	     -0.83797251	      0.87463487
      0.48366667	     -2.46836598	      4.08292699	     -4.14166454	     -0.73199096	      1.06209947	      0.31235728	     23.51920150	      0.35934695	     -3.85224564	     -6.02515552	     -0.19966433	     -1.43809078	      0.30427334	     -6.08519779	      8.67094939	     -3.39919719	    -18.61050231	      6.14475034	     -3.03129077	      0.11545776	      2.70651771	     -0.72551004	      0.86399418
      0.48783333	     -2.34579979	      4.07679934	     -4.29779030	     -0.72595577	      1.06204655	      0.31279407	     23.32523491	      0.43259225	     -3.48684832	     -6.47949396	     -0.58901273	     -1.63858543	      0.35333703	     -5.89772200	      8.54738709	     -3.99294715	    -19.84275464	      5.56033248	     -2.11657953	      0.24019646	      2.66268911	     -0.66625489	      0.87029999
      0.49200000	     -2.20943885	      3.96900214	     -4.35407778	     -0.71976821	      1.06212449	      0.31352457	     23.01211730	      0.61466458	     -2.94796964	     -6.78534669	     -0.98969296	     -2.45461073	      0.49473458	     -5.69524954	      8.24175128	     -4.63716753	    -21.20562467	      5.48062801	     -1.06068804	      0.64459133	      2.60689844	     -0.63105729	      0.98529757
      0.49616667	     -2.14636726	      3.88470297	     -4.31361849	     -0.71362109	      1.06212453	      0.31364410	     22.82655441	      0.68583601	     -2.86337968	     -7.19917133	     -1.16928926	     -2.41326065	      0.51681581	     -5.37676896	      7.99228830	     -5.03274580	    -22.61676314	      5.06247256	     -0.85913378	      0.70198588	      2.48115874	     -0.51240779	      0.97186041
